<svg width="25" height="20" viewBox="0 0 25 20" fill="none" xmlns="http://www.w3.org/2000/svg">
<path d="M24.7648 2.32315C23.8723 2.71465 22.9213 2.97415 21.9298 3.10015C22.9498 2.49115 23.7283 1.53415 24.0943 0.380648C23.1433 0.947648 22.0933 1.34815 20.9743 1.57165C20.0713 0.610149 18.7843 0.0146484 17.3803 0.0146484C14.6563 0.0146484 12.4633 2.22565 12.4633 4.93615C12.4633 5.32615 12.4963 5.70115 12.5773 6.05815C8.48677 5.85865 4.86727 3.89815 2.43577 0.911648C2.01127 1.64815 1.76227 2.49115 1.76227 3.39865C1.76227 5.10265 2.63977 6.61315 3.94777 7.48765C3.15727 7.47265 2.38177 7.24315 1.72477 6.88165C1.72477 6.89665 1.72477 6.91615 1.72477 6.93565C1.72477 9.32665 3.43027 11.3126 5.66677 11.7701C5.26627 11.8796 4.82977 11.9321 4.37677 11.9321C4.06177 11.9321 3.74377 11.9141 3.44527 11.8481C4.08277 13.7966 5.89177 15.2291 8.04277 15.2756C6.36877 16.5851 4.24327 17.3741 1.94227 17.3741C1.53877 17.3741 1.15177 17.3561 0.764771 17.3066C2.94427 18.7121 5.52727 19.5146 8.31277 19.5146C17.3668 19.5146 22.3168 12.0146 22.3168 5.51365C22.3168 5.29615 22.3093 5.08615 22.2988 4.87765C23.2753 4.18465 24.0958 3.31915 24.7648 2.32315Z" fill="white"/>
</svg>
